<svg width="18" height="22" viewBox="0 0 18 22" fill="none" xmlns="http://www.w3.org/2000/svg">
<path d="M6.00012 10C6.00012 9.44771 6.44784 9 7.00012 9C7.55241 9 8.00012 9.44771 8.00012 10V16C8.00012 16.5523 7.55241 17 7.00012 17C6.44784 17 6.00012 16.5523 6.00012 16V10Z" fill="black"/>
<path d="M11.0001 9C10.4478 9 10.0001 9.44771 10.0001 10V16C10.0001 16.5523 10.4478 17 11.0001 17C11.5524 17 12.0001 16.5523 12.0001 16V10C12.0001 9.44771 11.5524 9 11.0001 9Z" fill="black"/>
<path fill-rule="evenodd" clip-rule="evenodd" d="M5.53125 0C2.52376 0 0.196832 2.63591 0.569865 5.62017L2.28886 19.3721C2.47652 20.8734 3.75272 22 5.26569 22H12.7346C14.2475 22 15.5237 20.8734 15.7114 19.3721L17.4304 5.62017C17.8034 2.63591 15.4765 0 12.469 0H5.53125ZM2.7016 4C3.11078 2.8455 4.21187 2 5.53125 2H12.469C13.7884 2 14.8895 2.8455 15.2986 4H2.7016ZM2.63291 6L4.27341 19.124C4.33597 19.6245 4.76137 20 5.26569 20H12.7346C13.2389 20 13.6643 19.6245 13.7268 19.124L15.3673 6H2.63291Z" fill="black"/>
</svg>
